<mxfile host="app.diagrams.net" modified="2021-08-18T08:44:57.285Z" agent="5.0 (Macintosh; Intel Mac OS X 10_15_7) AppleWebKit/537.36 (KHTML, like Gecko) Chrome/92.0.4515.131 Safari/537.36" etag="l8t-kj-L2mgxKKKFOIJX" version="14.9.6" type="github">
  <diagram id="up9QKdOea-HKqZMQfAZH" name="Page-1">
    <mxGraphModel dx="946" dy="614" grid="1" gridSize="10" guides="1" tooltips="1" connect="1" arrows="1" fold="1" page="1" pageScale="1" pageWidth="827" pageHeight="1169" math="0" shadow="0">
      <root>
        <mxCell id="0" />
        <mxCell id="1" parent="0" />
        <mxCell id="UkFnHVTd0OP4hVO1wuu8-1" value="硬件后端" style="rounded=1;whiteSpace=wrap;html=1;fillColor=#f5f5f5;strokeColor=#666666;fontColor=#333333;" parent="1" vertex="1">
          <mxGeometry x="160" y="680" width="400" height="40" as="geometry" />
        </mxCell>
        <mxCell id="UkFnHVTd0OP4hVO1wuu8-2" value="飞桨核心框架（训练、部署、分布式）" style="rounded=1;whiteSpace=wrap;html=1;fillColor=#dae8fc;strokeColor=#6c8ebf;" parent="1" vertex="1">
          <mxGeometry x="160" y="640" width="400" height="40" as="geometry" />
        </mxCell>
        <mxCell id="UkFnHVTd0OP4hVO1wuu8-3" value="端到端开发套件&lt;br&gt;（e.g.: PaddleNLP, PaddleOCR）" style="rounded=1;whiteSpace=wrap;html=1;fillColor=#ffe6cc;strokeColor=#d79b00;" parent="1" vertex="1">
          <mxGeometry x="160" y="600" width="200" height="40" as="geometry" />
        </mxCell>
        <mxCell id="UkFnHVTd0OP4hVO1wuu8-4" value="工具组件&lt;br&gt;(e.g.: PaddleHub, PaddleX)" style="rounded=1;whiteSpace=wrap;html=1;fillColor=#ffe6cc;strokeColor=#d79b00;" parent="1" vertex="1">
          <mxGeometry x="360" y="600" width="200" height="40" as="geometry" />
        </mxCell>
        <mxCell id="UkFnHVTd0OP4hVO1wuu8-5" value="开发者教育、生态拓展、企业拓展" style="rounded=1;whiteSpace=wrap;html=1;fillColor=#d5e8d4;strokeColor=#82b366;" parent="1" vertex="1">
          <mxGeometry x="160" y="560" width="400" height="40" as="geometry" />
        </mxCell>
        <mxCell id="DA5N46FBbyhE8X6UhTL6-4" value="核心指标：&lt;br&gt;企业转化：2021年H1超500家；&lt;br&gt;框架总下载量：2021年6月超13万&lt;br&gt;Paddle Family Stars：截止2021年6月超6万" style="shape=hexagon;perimeter=hexagonPerimeter2;whiteSpace=wrap;html=1;fixedSize=1;fillColor=#f8cecc;strokeColor=#b85450;" vertex="1" parent="1">
          <mxGeometry x="160" y="500" width="400" height="60" as="geometry" />
        </mxCell>
      </root>
    </mxGraphModel>
  </diagram>
</mxfile>
